PathFileType	4	(X/Y/Z)	C:\Users\WrightLab\Desktop\Jo\P2_Trial25.trc
DataRate	CameraRate	NumFrames	NumMarkers	Units	OrigDataRate	OrigDataStartFrame	OrigNumFrames
100.00	100.00	       12	19	mm	100.00	331	       529
Frame#	Time	Headset_Front			Headset_Back			Headset_Left			Headset_Right			Left_Shoulder			Right_Shoulder			Sternum			C7			Left Elbow			Right Elbow			Left Wrist			Right Wrist			Left ASIS			Right ASIS			S2			Left Knee			Right Knee			Left Ankle			Right Ankle			
		X1	Y1	Z1	X2	Y2	Z2	X3	Y3	Z3	X4	Y4	Z4	X5	Y5	Z5	X6	Y6	Z6	X7	Y7	Z7	X8	Y8	Z8	X9	Y9	Z9	X10	Y10	Z10	X11	Y11	Z11	X12	Y12	Z12	X13	Y13	Z13	X14	Y14	Z14	X15	Y15	Z15	X16	Y16	Z16	X17	Y17	Z17	X18	Y18	Z18	X19	Y19	Z19	

331	3.300	4.46813	1469.38452	1186.63831	-5.34362	1711.12927	997.21381				-105.13651	1557.22595	1133.03589	117.79180	1462.87952	911.44391	-187.30626	1466.28430	1032.14307	-9.34198	1348.69458	1046.12183	-87.87360	1453.04712	877.89337	215.56784	1169.62036	877.30713	-316.42493	1146.54956	1018.14911				-371.52066	900.48077	1074.20740	43.55320	1037.64136	1051.66333	-85.91924	1025.16199	1103.68774	-100.79672	960.25018	826.03864	240.32477	502.05304	1028.64587	-117.07635	571.88788	1087.82776	126.53484	333.46643	771.78937	1.38906	149.18669	1065.43286	
332	3.310	5.63313	1473.36975	1195.55884	-3.67861	1713.64990	1004.51154				-103.78622	1561.42188	1141.54578	120.64537	1466.07849	922.66986	-185.40652	1469.58923	1038.95715	-7.63023	1351.85193	1055.49829	-83.83041	1455.21387	885.85150	222.51056	1174.72400	887.12457	-312.60727	1148.73181	1027.18787				-364.95911	903.82001	1091.78564	45.63565	1040.84436	1062.93408	-84.44052	1029.43628	1114.21545	-93.60377	962.82642	835.30737	249.98463	514.49542	1062.39160	-125.37589	569.75745	1090.44739	145.51648	336.45508	800.03601	-3.57003	153.91985	1066.01001	
333	3.320	6.26716	1477.38916	1205.03381	-2.44199	1716.86938	1012.33411				-102.40692	1565.56079	1149.85254	123.36541	1469.24719	933.55206	-183.52554	1473.78479	1046.54224	-6.18618	1354.95862	1064.98865	-80.38597	1457.68579	894.62561	229.01773	1178.98279	895.87836	-308.75537	1151.18030	1036.76099				-360.06488	908.57788	1109.19971	47.94088	1045.10413	1075.48914	-83.12255	1033.54834	1123.88928	-87.28820	965.72375	844.90643	256.78033	528.78979	1094.22583	-134.99164	567.58875	1091.55676	164.29198	339.88589	828.65497	-7.87716	157.75453	1066.31421	
334	3.330	7.25411	1483.46045	1219.77283	-0.02295	1718.99731	1019.27655				-101.11007	1568.91260	1158.19666	126.09724	1472.67065	944.80768	-181.86928	1476.07617	1053.15161	-5.32078	1358.25256	1074.28198	-76.72929	1459.62268	903.06787	235.57788	1184.16162	904.88837	-305.49136	1153.65466	1047.00195				-353.38852	912.11896	1126.70471	50.88246	1048.80493	1087.92847	-82.07732	1037.71667	1133.01501	-80.26821	967.99481	853.98767	262.25916	543.63318	1123.87683	-145.01506	565.60004	1089.33813	182.89131	340.84958	859.20508	-10.72419	160.22916	1065.76880	
335	3.340	8.34406	1488.09766	1229.69604	1.29020	1721.40417	1026.67139				-100.50553	1572.41797	1166.86584	128.88489	1475.19641	955.71429	-180.30782	1478.52209	1060.63208	-4.88048	1360.85510	1083.78613	-73.43777	1461.88660	912.05896	241.68228	1188.58337	914.08710	-302.67752	1155.61145	1057.45337				-347.26141	915.42139	1144.63745	52.90808	1052.32898	1099.19019	-81.16721	1041.11548	1142.57910	-73.70090	970.17590	864.36847	265.26953	557.20850	1151.88428	-153.48868	563.16937	1087.63147	200.90820	341.80038	889.19537	-15.61456	162.87865	1065.86206	
336	3.350	9.46178	1492.09583	1239.96643	2.33684	1723.28699	1034.12488				-99.41930	1575.57324	1175.66162	131.35947	1477.77185	968.60699	-178.91351	1480.29541	1068.06506	-3.42659	1363.11426	1092.86401	-70.55040	1463.66223	921.42096	247.18355	1193.48621	922.91711	-299.90424	1156.94873	1069.34436				-341.46124	919.15063	1162.92786	54.52296	1056.42004	1118.85547	-80.10349	1044.71436	1151.67688	-66.28529	971.74487	873.45367	266.16348	568.05743	1176.18347	-160.29320	560.82941	1085.00281	219.16081	342.05908	919.23981	-18.62491	163.25392	1065.99341	
337	3.360	10.09627	1496.29724	1250.48730	3.67208	1725.12036	1041.64160				-98.54436	1578.90784	1184.87256	133.70390	1480.35645	979.99115	-177.66418	1482.18567	1075.66931	-2.18791	1365.26721	1102.09668	-67.31521	1465.19824	930.39130	252.06567	1197.49280	931.43671	-296.58755	1157.91260	1080.49109				-335.90762	922.65961	1181.16675	55.33541	1060.02551	1129.72742	-78.85925	1047.06677	1160.73047	-58.77896	972.98993	883.58563	266.14111	577.70496	1200.88086	-165.96075	559.14691	1082.62256	237.03120	341.28702	950.71423	-22.84439	163.84935	1066.71570	
338	3.370	11.22547	1499.81848	1260.76184	4.46977	1726.16907	1049.84644				-97.50105	1581.94727	1194.45129	135.72165	1482.45325	991.28253	-176.01208	1483.73254	1083.10815	-1.29288	1367.05542	1111.86108	-64.65646	1466.03064	939.71259	257.60403	1201.52124	939.94592	-293.76648	1159.15601	1092.10474				-330.26715	926.22559	1199.69324	55.94075	1062.33521	1139.89856	-78.49455	1049.67273	1169.33508	-51.45939	974.52075	893.69196	265.18185	586.45074	1223.73975	-170.24168	556.87292	1079.50232	254.22395	339.67230	981.79034	-26.18823	162.20076	1067.29150	
339	3.380	11.68432	1503.48889	1271.35547	5.14451	1727.23535	1058.15466				-96.70347	1584.63086	1204.12097	137.73674	1484.18860	1003.02142	-175.42868	1483.37073	1090.55554	-0.47556	1368.63489	1121.81213	-61.53822	1467.10669	948.82391	262.31430	1205.23743	948.55615	-291.34207	1160.18103	1104.04626				-324.82596	929.85339	1218.24890	56.69145	1065.18201	1152.98938	-77.62252	1051.39563	1177.95398	-43.58065	975.83734	902.73926	262.76703	594.90710	1245.80811	-174.15631	555.59399	1076.54443	268.93451	336.49533	1012.64270	-29.94498	159.91525	1067.38062	
340	3.390	12.48760	1506.34241	1282.12646	6.40572	1728.17554	1066.70752				-95.55528	1586.88281	1213.76917	139.87752	1485.59363	1015.33130	-174.08827	1484.40112	1098.52539	-0.06817	1370.32568	1132.11572	-59.16582	1467.54626	958.50305	265.90131	1209.78455	956.65662	-289.00217	1161.10498	1116.53601				-320.21112	933.74548	1237.57117	57.66765	1066.98206	1164.09375	-76.38589	1052.58740	1186.59387	-35.37617	977.29834	912.22314	260.24307	602.58771	1267.06372	-176.74573	554.64557	1072.99170	284.60736	335.94141	1045.10034	-32.91988	156.91225	1067.82520	
341	3.400	13.58248	1508.90149	1292.61133	6.80503	1729.42041	1075.93433				-94.91893	1588.74536	1223.49365	141.23537	1486.56445	1026.74243	-172.70589	1484.21509	1106.32007	1.35534	1371.36340	1142.64490	-56.47069	1467.73743	968.25586	270.01187	1212.87976	965.39551	-286.97034	1162.19861	1129.53625				-315.08347	936.77289	1255.93555	59.01400	1068.90808	1178.07227	-75.69325	1053.51001	1194.84167	-26.95109	978.06244	922.40253	257.48059	608.66687	1288.39722	-178.79572	554.34680	1069.92871	298.43771	332.47745	1075.28845	-36.09418	153.63730	1068.06140	
342	3.410	14.38459	1510.46997	1303.50159	8.30453	1729.29712	1084.91541				-94.23807	1589.66101	1233.62732	143.48085	1487.93970	1038.88843	-172.79019	1485.04224	1115.31799	2.42850	1372.25391	1153.56116	-53.71658	1467.74841	977.65991	274.20319	1215.84351	973.91620	-284.70642	1162.73438	1142.70056				-310.25006	940.31940	1274.57629	59.83124	1068.91321	1189.51855	-74.50703	1054.12622	1203.36719	-18.47852	978.81995	932.41833	255.14049	613.94952	1308.46558	-179.42076	553.64752	1066.19141	312.28769	330.92371	1106.68933	-39.10706	149.78252	1068.47034	
